<?xml version="1.0" encoding="UTF-8"?>
<!DOCTYPE svg PUBLIC "-//W3C//DTD SVG 1.1//EN" "http://www.w3.org/Graphics/SVG/1.1/DTD/svg11.dtd">
<!-- Creator: CorelDRAW 2018 -->
<svg xmlns="http://www.w3.org/2000/svg" xml:space="preserve" width="43.3492mm" height="43.3492mm" version="1.1" style="shape-rendering:geometricPrecision; text-rendering:geometricPrecision; image-rendering:optimizeQuality; fill-rule:evenodd; clip-rule:evenodd"
viewBox="0 0 4334.92 4334.92"
 xmlns:xlink="http://www.w3.org/1999/xlink">
 <defs>
  <style type="text/css">
   <![CDATA[
    .fil0 {fill:black}
   ]]>
  </style>
 </defs>
 <g id="Layer_x0020_1">
  <metadata id="CorelCorpID_0Corel-Layer"/>
  <path class="fil0" d="M365.76 1524l3603.4 0c0,706 9.55,1418.44 0.38,2123.6 -5.43,418.98 -449.16,321.55 -740.36,321.56 -707.82,0.01 -1415.62,0.01 -2123.44,0 -289.75,-0.01 -735.83,97.02 -740.75,-320.96 -8.31,-705.63 0.77,-1417.8 0.77,-2124.2zm754.5 -1415.62l36.33 0c142.93,14.48 110.02,204.96 110.02,321.73l1801.7 0c0,-117.34 -32.98,-306.76 109.93,-321.73l37.52 0c142.91,14.97 109.94,204.39 109.94,321.73 252.97,2.96 509.69,-49.09 717.34,127.19 140.85,119.56 176.2,253.55 183.5,402.77l0 202.96c-0.28,18.41 -0.48,37.01 -0.51,55.83 -0.7,545.22 0.44,1090.57 0.51,1635.82l0 52.76 0 806.33c-0.86,11.98 -1.82,23.77 -2.87,35.34 -19.36,213.16 -174.74,407.76 -384.56,459.99 -32.71,8.14 -77.68,13.73 -130.21,17.44l-696.89 0 -1689.1 0 -696.89 0c-52.53,-3.71 -97.5,-9.3 -130.21,-17.44 -209.82,-52.23 -365.2,-246.83 -384.56,-459.99 -1.05,-11.57 -2.01,-23.36 -2.87,-35.34l0 -806.33 0 -52.76c0.07,-545.25 1.21,-1090.6 0.51,-1635.82 -0.02,-18.82 -0.23,-37.42 -0.51,-55.83l0 -202.96c7.3,-149.21 42.65,-283.21 183.5,-402.77 207.65,-176.28 464.37,-124.23 717.34,-127.19 0,-122.3 -32.45,-307.45 111.04,-321.73zm-754.5 884.76c0,-189.73 115.93,-305.65 305.64,-305.65l339.84 0 -2.02 128.69c0,171.71 257.39,171.71 257.39,0l0 -128.69 1801.7 0 0 128.69c0,171.71 257.39,171.71 257.39,0l0 -128.69 337.82 0c355.94,0 305.64,329.03 305.64,579.12l-3603.4 0 0 -273.47z"/>
 </g>
</svg>
