<?xml version="1.0" encoding="UTF-8"?>
<!DOCTYPE svg PUBLIC "-//W3C//DTD SVG 1.1//EN" "http://www.w3.org/Graphics/SVG/1.1/DTD/svg11.dtd">
<!-- Creator: CorelDRAW 2018 -->
<svg xmlns="http://www.w3.org/2000/svg" xml:space="preserve" width="43.3492mm" height="43.3492mm" version="1.1" style="shape-rendering:geometricPrecision; text-rendering:geometricPrecision; image-rendering:optimizeQuality; fill-rule:evenodd; clip-rule:evenodd"
viewBox="0 0 4334.92 4334.92"
 xmlns:xlink="http://www.w3.org/1999/xlink">
 <defs>
  <style type="text/css">
   <![CDATA[
    .fil0 {fill:#000002}
   ]]>
  </style>
 </defs>
 <g id="Layer_x0020_1">
  <metadata id="CorelCorpID_0Corel-Layer"/>
  <g id="_945953104">
   <path class="fil0" d="M2666.14 3631.35c10.07,-20.99 20.47,-108.29 26.24,-142.67 7.74,-46.04 15.24,-100.05 24.13,-152.83 7.49,-44.42 15.57,-93.8 24.13,-144.78 7.23,-43.05 22.02,-103.7 22.02,-154.93l165.88 59.33c163.87,49.3 320.69,29.9 476.59,-28.16 28,-10.42 45.34,-28.17 81.44,-31.17 0,62.43 53.45,356.43 67.73,439 8.46,49 20.74,105.72 20.74,156.21 -105.23,-55.69 -331,-193.04 -434.34,-193.04 -139.97,0 -155.09,33.75 -260.06,85.79 -36.48,18.09 -72.84,33.56 -106.67,54.21 -31.92,19.47 -70.67,44.38 -107.83,53.04zm426.3 -1745.4c157.28,0 265.69,28.45 380.03,142.78 154.16,154.16 184.83,374.47 93.24,571.78 -17.28,37.24 -72.45,115.25 -103.11,138.19 -105.62,79 -188.21,136.57 -337.99,136.57 -161.05,0 -306.74,-80.73 -399.02,-204.21 -17.17,-22.98 -33.31,-48.01 -46.29,-74.37 -13.68,-27.8 -22.61,-56.49 -32.27,-88.38 -12.67,-41.84 -10.35,-65.39 -18.09,-111.09 -16.79,-99.26 51.36,-273.02 131.7,-352.43 88.12,-87.09 191.99,-158.84 331.8,-158.84zm-611.29 1230.62l-2091.27 0c-18.82,0 -32.16,-13.34 -32.16,-32.17l0 -2437.13c15.8,-8.36 23.71,-16.09 48.26,-16.09l3522.96 0c24.55,0 32.46,7.73 48.26,16.09l0 2437.13c0,52.75 -117.8,32.17 -233.25,32.17 0,-65.71 -45.17,-256.47 -40.21,-273.47l59.59 -85.19c127.75,-191.3 134.46,-493.15 28.89,-703.06 -119.29,-237.18 -363.8,-418.25 -627.39,-418.25 -175.79,0 -274.79,17.09 -426.16,104.69 -226.11,130.85 -384.4,421.24 -354.79,684.3 16.13,143.26 43.39,269.65 139.83,391.07 34.92,43.97 13.47,78.47 -4.46,185.2 -11.98,71.39 -6.4,114.71 -38.1,114.71zm-2372.78 -2461.26l0 2453.22c0,33.25 16.83,74.08 29.23,99.47 10.69,21.89 11.55,22.17 24.76,39.57 52.32,68.98 126.75,118.35 219.49,118.35l2075.17 0c0,46.62 -64.34,374.63 -64.34,418.24 0,42.1 23.87,90.89 45.99,114.89 110.03,119.37 254,0.59 399.1,-71.95 33.05,-16.53 249.1,-139.45 278.8,-139.45 49.92,0 82.9,29.46 152.82,64.35 47.42,23.65 88.72,48.39 136.74,72.39 50.81,25.38 225.62,128.68 281.52,128.68 115.61,0 178.36,-94.52 159.87,-232.25 -11.89,-88.45 -55.31,-287.21 -55.31,-354.9 146.3,0 314.51,20.72 402.41,-152.58 12.21,-24.06 31.93,-68.97 31.93,-104.81l0 -2453.22c0,-148.82 -137.25,-273.46 -305.64,-273.46l-3498.85 0c-179.74,0 -313.69,124.5 -313.69,273.46z"/>
   <path class="fil0" d="M615.1 1210.3c0,80.46 63.03,128.7 128.69,128.7l2758.86 0c167.84,0 172.1,-249.35 8.05,-249.35l-2774.95 0c-68.67,0 -120.65,51.98 -120.65,120.65z"/>
   <path class="fil0" d="M615.1 1861.82c0,80.57 41.79,136.73 120.65,136.73l1190.41 0c41.55,0 82.37,-38.74 98.19,-70.72 46.43,-93.91 -33.55,-178.63 -122.32,-178.63l-1158.24 0c-62.88,0 -128.69,53.37 -128.69,112.62z"/>
  </g>
 </g>
</svg>
