<?xml version="1.0" encoding="UTF-8"?>
<!DOCTYPE svg PUBLIC "-//W3C//DTD SVG 1.1//EN" "http://www.w3.org/Graphics/SVG/1.1/DTD/svg11.dtd">
<!-- Creator: CorelDRAW 2018 -->
<svg xmlns="http://www.w3.org/2000/svg" xml:space="preserve" width="43.3492mm" height="43.3492mm" version="1.1" style="shape-rendering:geometricPrecision; text-rendering:geometricPrecision; image-rendering:optimizeQuality; fill-rule:evenodd; clip-rule:evenodd"
viewBox="0 0 4334.92 4334.92"
 xmlns:xlink="http://www.w3.org/1999/xlink">
 <defs>
  <style type="text/css">
   <![CDATA[
    .fil0 {fill:black}
   ]]>
  </style>
 </defs>
 <g id="Layer_x0020_1">
  <metadata id="CorelCorpID_0Corel-Layer"/>
  <g id="_948565424">
   <path class="fil0" d="M999.05 2675.46l0 -1456.26c0,-115.02 92.15,-220.15 203.21,-220.15l1930.4 0c111.06,0 203.21,105.13 203.21,220.15l0 1456.26c0,311.28 -365.86,237.06 -677.34,237.06 -152.4,0 -304.8,0 -457.2,0 -360.75,0 -267.72,-32.84 -607.48,306.92 -17.91,17.91 -101.3,106.86 -117.41,111.95 -68.07,21.49 -44.14,-111.92 -45.26,-173.65 -7.16,-395.31 -432.13,-107.46 -432.13,-482.28zm-220.13 -1498.6l0 1549.4c0,209.36 209.64,406.4 423.34,406.4 0,129.14 -12.41,214.39 40.31,298.37 37.81,60.23 119.97,124.97 213.69,124.97 147.56,0 224.54,-101.55 299.83,-182.77 49.05,-52.92 194.14,-205.48 242.04,-240.57 327.37,0 654.75,0 982.13,0 198.41,0 284.48,-1.62 403,-88.07 79.57,-58.05 172.74,-186.54 172.74,-318.33l0 -1549.4c0,-192.44 -204.23,-397.94 -397.94,-397.94l-1981.2 0c-193.42,0 -397.94,205.38 -397.94,397.94z"/>
   <path class="fil0" d="M1413.93 1634.06c0,50.96 46.73,110.07 101.6,110.07l1303.86 0c127.28,0 142.14,-220.14 -16.93,-220.14l-1270 0c-63.79,0 -118.53,51.46 -118.53,110.07z"/>
   <path class="fil0" d="M1413.93 2269.06c0,58.32 53.49,118.53 110.07,118.53l745.06 0c82.33,0 110.07,-65.58 110.07,-135.46 0,-29.34 -52.06,-84.67 -93.14,-84.67l-770.46 0c-51.54,0 -101.6,52.31 -101.6,101.6z"/>
   <path class="fil0" d="M2641.59 2387.59c83.94,0 220.13,20.86 220.13,-118.53 0,-123.9 -149.06,-101.6 -220.13,-101.6 -149.74,0 -131.97,220.13 0,220.13z"/>
  </g>
 </g>
</svg>
