<?xml version="1.0" encoding="UTF-8"?>
<!DOCTYPE svg PUBLIC "-//W3C//DTD SVG 1.1//EN" "http://www.w3.org/Graphics/SVG/1.1/DTD/svg11.dtd">
<!-- Creator: CorelDRAW 2018 -->
<svg xmlns="http://www.w3.org/2000/svg" xml:space="preserve" width="43.3492mm" height="43.3492mm" version="1.1" style="shape-rendering:geometricPrecision; text-rendering:geometricPrecision; image-rendering:optimizeQuality; fill-rule:evenodd; clip-rule:evenodd"
viewBox="0 0 4334.92 4334.92"
 xmlns:xlink="http://www.w3.org/1999/xlink">
 <defs>
  <style type="text/css">
   <![CDATA[
    .fil0 {fill:black}
   ]]>
  </style>
 </defs>
 <g id="Layer_x0020_1">
  <metadata id="CorelCorpID_0Corel-Layer"/>
  <g id="_948200432">
   <path class="fil0" d="M2167.79 1973.67c-422.31,0 -774.58,-353.46 -774.58,-775.18 0,-422.29 352.29,-774.58 774.58,-774.58 422.3,0 774.59,352.29 774.59,774.58 0,421.72 -352.27,775.18 -774.59,775.18zm-1098.16 -823.63c0,333.51 77.02,532.66 269.87,771.76 46.02,57.05 137.81,118.14 166.17,156.84 -340.11,79.24 -705.08,381.51 -914.56,603.49 -109.89,116.44 -229.95,304.35 -304.78,454.25 -83.92,168.12 -185.67,422.38 -185.67,637.95 0,231.52 228.49,460.27 460.26,460.27l2026.76 0c87.92,0 153.42,-69.44 153.42,-169.58 0,-217.97 -359.49,-153.42 -573.31,-153.42l-1453.45 0.01c-135.42,0.05 -224.69,2.74 -269.79,-93.64 -36.63,-78.31 6.69,-219.98 35.52,-294.05 151.96,-390.42 294.81,-610.58 602.18,-851.28 405.77,-317.74 962.85,-464.48 1529.67,-319.47 110.69,28.31 322.99,129.21 395.64,129.21 155.39,0 315.65,-288.82 -177.64,-403.74 45.08,-61.52 163.45,-105.94 296.01,-341.9 106.3,-189.22 140.02,-343.47 140.02,-586.7 0,-538.95 -510.76,-1049.72 -1049.71,-1049.72l-96.9 0c-538.95,0 -1049.71,510.77 -1049.71,1049.72z"/>
   <path class="fil0" d="M3306.33 2853.81l0 452.19 -452.19 0c-203.66,0 -203.66,322.99 0,322.99l452.19 0 0 452.18c0,203.68 322.99,203.68 322.99,0l0 -452.18 452.18 0c203.68,0 203.68,-322.99 0,-322.99l-452.18 0 0 -452.19c0,-203.67 -322.99,-203.67 -322.99,0z"/>
  </g>
 </g>
</svg>
