<?xml version="1.0" encoding="UTF-8"?>
<!DOCTYPE svg PUBLIC "-//W3C//DTD SVG 1.1//EN" "http://www.w3.org/Graphics/SVG/1.1/DTD/svg11.dtd">
<!-- Creator: CorelDRAW 2018 -->
<svg xmlns="http://www.w3.org/2000/svg" xml:space="preserve" width="43.3492mm" height="43.3492mm" version="1.1" style="shape-rendering:geometricPrecision; text-rendering:geometricPrecision; image-rendering:optimizeQuality; fill-rule:evenodd; clip-rule:evenodd"
viewBox="0 0 4334.92 4334.92"
 xmlns:xlink="http://www.w3.org/1999/xlink">
 <defs>
  <style type="text/css">
   <![CDATA[
    .fil0 {fill:black}
   ]]>
  </style>
 </defs>
 <g id="Layer_x0020_1">
  <metadata id="CorelCorpID_0Corel-Layer"/>
  <path class="fil0" d="M1435.52 2368.55l88.48 0c428.18,0 835.5,322.05 987.17,677.78 30.91,72.5 48.47,118.84 69.79,203.69 20.83,82.89 36.16,164.15 -75.68,164.15l-2075.17 0c-160.92,0 -17.6,-305.33 11.47,-374.6 105.47,-251.35 306.63,-439.2 548.87,-561.11 111.41,-56.07 281.77,-109.91 445.07,-109.91zm1705.18 -265.43c328.91,0 612.76,191.67 748.11,450.33 30.79,58.84 105.76,223.14 88.39,297.69 -86.95,20.26 -1108.1,8.04 -1286.93,8.04 -18.73,-70.15 -210.44,-317.08 -265.43,-353.9 109.11,-206.2 396.52,-402.16 715.86,-402.16zm-1664.96 -1182.37c302.7,0 579.12,264.63 579.12,563.03l0 88.48c0,271.15 -274.22,546.94 -546.95,546.94 -214.58,0 -315.9,-47.93 -456.56,-186.9 -74.75,-73.87 -175.59,-267.99 -161.76,-422.76 16.24,-181.86 74.94,-310.76 173.64,-414.15 82.57,-86.49 246.22,-174.64 412.51,-174.64zm1656.92 64.34c237.67,0 434.34,197.08 434.34,426.3 0,221.73 -178.35,442.38 -386.08,442.38l-80.44 0c-267.58,0 -555.14,-405.78 -259.41,-742.02 52.11,-59.25 182.51,-126.66 291.59,-126.66zm-2485.39 506.73c0,530.36 316.37,643.56 337.82,723.9 -186.64,43.48 -458.51,264.94 -579.21,418.15 -125.98,159.92 -297.5,454.37 -297.5,724 0,151.54 145.06,297.6 297.6,297.6l2139.51 0c154.46,0 297.61,-136.35 297.61,-329.77 0,-82.76 -32.16,-156.08 -48.26,-225.22 281.51,0 563.03,0 844.55,0 113.31,0 316.2,15.92 405.43,-12.81 105.21,-33.88 181.72,-134.53 181.72,-268.7 0,-181.12 -139.06,-425.44 -221.68,-534.39 -57.72,-76.14 -114.32,-132.13 -187.47,-190.56 -46.43,-37.09 -182.12,-129.7 -242.35,-143.73 7.04,-26.39 233.25,-202.06 233.25,-490.64 0,-233.07 -50.33,-375.23 -203.05,-528.88 -252.35,-253.89 -676.32,-252.63 -929.17,-0.1 -215.52,215.24 -265.31,539.51 -125.35,813.31 64.62,126.42 128.69,154.06 163.68,206.31 -146.03,34.02 -448.54,296.69 -474.55,394.13 -37.11,-3.09 -194.41,-110.28 -273.48,-128.7 7.34,-27.45 97.22,-99.73 122.82,-126.53 293.73,-307.55 283.9,-839.55 -16.09,-1154.52 -108.8,-114.22 -330.95,-255.22 -549.1,-255.22l-96.52 0c-395.01,0 -780.21,388.91 -780.21,812.37z"/>
 </g>
</svg>
