<?xml version="1.0" encoding="UTF-8"?>
<!DOCTYPE svg PUBLIC "-//W3C//DTD SVG 1.1//EN" "http://www.w3.org/Graphics/SVG/1.1/DTD/svg11.dtd">
<!-- Creator: CorelDRAW 2018 -->
<svg xmlns="http://www.w3.org/2000/svg" xml:space="preserve" width="43.3492mm" height="43.3492mm" version="1.1" style="shape-rendering:geometricPrecision; text-rendering:geometricPrecision; image-rendering:optimizeQuality; fill-rule:evenodd; clip-rule:evenodd"
viewBox="0 0 4334.92 4334.92"
 xmlns:xlink="http://www.w3.org/1999/xlink">
 <defs>
  <style type="text/css">
   <![CDATA[
    .fil0 {fill:black}
   ]]>
  </style>
 </defs>
 <g id="Layer_x0020_1">
  <metadata id="CorelCorpID_0Corel-Layer"/>
  <g id="_595501496">
   <path class="fil0" d="M851.27 3960.05l0 -3585.18c0,-27.22 14.27,-56.53 40.38,-56.53l1929.87 0 0 621.76c0,48.5 48.39,96.89 96.9,96.89l565.23 0 0 2923.06c0,27.22 -14.27,56.53 -40.38,56.53l-2551.62 0c-26.11,0 -40.38,-29.31 -40.38,-56.53zm2188.27 -3464.06c30.16,20.2 118.45,119.59 151.5,155.33l72.64 80.78c18.66,18.42 21.11,21.82 37.69,43.06 15.48,19.8 24.25,24.87 36.93,43.81l-298.76 0 0 -322.98zm-2406.28 -80.75l0 3504.44c0,131.78 31.16,220.11 131.47,280.34 29.33,17.6 59.68,34.58 102.69,34.58l2600.08 0c43.01,0 73.36,-16.98 102.69,-34.58 100.31,-60.23 131.47,-148.56 131.47,-280.34l0 -3019.96c0,-15.44 -67.68,-88.19 -82.69,-103.03 -17.22,-17.01 -32.76,-30.61 -48.46,-48.43l-274.54 -298.77c-18.72,-21.25 -22.71,-31.01 -44.35,-52.54 -17.76,-17.67 -31.96,-30.16 -48.67,-48.23l-185.69 -201.9c-17.23,-18.97 -25.67,-46.5 -50.4,-46.5l-2099.44 0c-66.76,0 -139.39,50.46 -175.59,98.96 -43.73,58.59 -58.57,117.33 -58.57,215.96z"/>
   <path class="fil0" d="M1150.04 1828.32c0,63.37 10.72,104.97 113.05,104.97l1736.07 0c159.35,0 162.98,-169.57 0,-169.57l-1736.07 0c-28.97,0 -54.17,3.79 -74.39,14.43 -15.28,8.05 -38.66,30.14 -38.66,50.17z"/>
   <path class="fil0" d="M1150.04 2886.11c0,49.39 21.01,88.82 72.67,88.82l1816.83 0c101.05,0 101.05,-161.49 0,-161.49l-1816.83 0c-39.9,0 -72.67,32.76 -72.67,72.67z"/>
   <path class="fil0" d="M1150.04 2345.11c0,53.76 6.6,104.96 96.89,104.96l1768.38 0c149.59,0 106.83,-161.49 40.37,-161.49l-1849.12 0c-19.54,0 -56.52,36.99 -56.52,56.53z"/>
   <path class="fil0" d="M1150.04 1303.46c0,49.38 21.01,88.82 72.67,88.82l1816.83 0c97.25,0 112.43,-161.49 -16.16,-161.49l-1792.59 0c-40.82,0 -80.75,29.12 -80.75,72.67z"/>
  </g>
 </g>
</svg>
