<?xml version="1.0" encoding="UTF-8"?>
<!DOCTYPE svg PUBLIC "-//W3C//DTD SVG 1.1//EN" "http://www.w3.org/Graphics/SVG/1.1/DTD/svg11.dtd">
<!-- Creator: CorelDRAW 2018 -->
<svg xmlns="http://www.w3.org/2000/svg" xml:space="preserve" width="43.3492mm" height="43.3492mm" version="1.1" style="shape-rendering:geometricPrecision; text-rendering:geometricPrecision; image-rendering:optimizeQuality; fill-rule:evenodd; clip-rule:evenodd"
viewBox="0 0 4334.92 4334.92"
 xmlns:xlink="http://www.w3.org/1999/xlink">
 <defs>
  <style type="text/css">
   <![CDATA[
    .fil0 {fill:black}
   ]]>
  </style>
 </defs>
 <g id="Layer_x0020_1">
  <metadata id="CorelCorpID_0Corel-Layer"/>
  <path class="fil0" d="M1678.81 2338.36c93.55,61.99 398.35,432.35 480.6,432.35l32.18 0c89.43,0 372.37,-363.26 466.52,-426.29l1152.18 1148.18 -3283.66 2.01 1152.18 -1156.25zm1154.24 -168.9l1150.19 -1154.2 2.01 2302.39 -1152.2 -1148.19zm-2481.39 1150.18l-1.99 -2302.37 1161.55 1146.85 -1159.56 1155.52zm173.45 -2477.8l3283.18 -1.53 -1630.78 1634.8 -1652.4 -1633.27zm-416.73 94.99l0 2461.26c0,167.72 170.09,337.81 337.81,337.81l3442.54 0c167.72,0 337.81,-170.09 337.81,-337.81l0 -2461.26c0,-167.72 -170.09,-337.81 -337.81,-337.81l-3442.54 0c-168.04,0 -337.81,170.54 -337.81,337.81z"/>
 </g>
</svg>
