<?xml version="1.0" encoding="UTF-8"?>
<!DOCTYPE svg PUBLIC "-//W3C//DTD SVG 1.1//EN" "http://www.w3.org/Graphics/SVG/1.1/DTD/svg11.dtd">
<!-- Creator: CorelDRAW 2018 -->
<svg xmlns="http://www.w3.org/2000/svg" xml:space="preserve" width="43.3492mm" height="43.3492mm" version="1.1" style="shape-rendering:geometricPrecision; text-rendering:geometricPrecision; image-rendering:optimizeQuality; fill-rule:evenodd; clip-rule:evenodd"
viewBox="0 0 4334.92 4334.92"
 xmlns:xlink="http://www.w3.org/1999/xlink">
 <defs>
  <style type="text/css">
   <![CDATA[
    .fil0 {fill:#2cacce}
   ]]>
  </style>
 </defs>
 <g id="Layer_x0020_1">
  <metadata id="CorelCorpID_0Corel-Layer"/>
  <g id="_949451008">
   <path class="fil0" d="M2215.35 3362.03c-13.22,-38.86 -188.19,-200.92 -229.54,-241.31 -138.43,-135.22 -7.76,-243.5 108.06,-124.03 145.7,150.27 364.54,485.56 504.55,221.69 -38.17,-27.99 -408.47,-385.68 -418.32,-435.85 -14.36,-73.15 72.36,-131.55 145.26,-65.38 93.7,85.04 192.15,192.87 283.03,283.76 96.97,96.97 209.77,249 341.17,73.82 -64.55,-109.63 -577.08,-477.24 -478.2,-597.25 81.27,-98.65 256.04,131.68 312.6,188.25 86.89,86.88 189.53,201.77 278.1,280.83 96,85.7 253.47,-30.63 67.03,-250.89 -151.01,-178.4 -691.33,-584.7 -905.75,-770.13 -70.82,28.86 -122.61,45.63 -185.72,69.66 -53.3,20.3 -208.33,292.42 -534.95,156.21 -332.87,-138.82 69.66,-559.1 114.14,-672.78l-335.18 0c-49.65,228.54 -103.15,447.82 -164.36,673.59 -88.5,326.5 -195.61,311.62 80.03,543.97 218.91,184.55 743.26,666.61 1018.05,665.84z"/>
   <path class="fil0" d="M3907.22 1151.43c-224.22,14.75 -413.13,34.19 -631.66,94.57 -343.56,94.93 -274.13,92.68 -159.83,361.75 136.91,322.29 292.96,731.81 384.53,1067.9 34.31,125.91 33.03,177.54 182.26,176.87 123.27,-0.57 245.75,-1.15 369.08,-0.51 123.02,0.65 152.93,-20.4 158.87,-85.95l0 -104.81 -0.17 -9.67 0.17 -1093.14 0 -355.01c-23.88,-60.75 -98.25,-65.49 -303.25,-52z"/>
   <path class="fil0" d="M188.31 975.86c-35.74,9.03 -54.56,70.51 -63.85,151.91l0 462.58c0,228.78 -0.01,457.55 0,686.33l0 341.65c22.92,52.75 92.38,56.73 279.27,57.42 365.5,1.33 356.13,87.36 453.69,-232.72 106.87,-350.58 217.27,-726.78 275.81,-1088.07 41.81,-257.91 -109.96,-270.79 -337.95,-315.71 -92.49,-18.22 -539.07,-80.56 -606.97,-63.39z"/>
   <path class="fil0" d="M2167.47 1334.98c-176.83,24 -379.74,212.84 -484.77,353.16 -286.45,382.71 70,396.57 194.66,242.62 127.68,-157.66 113.74,-69.66 264.46,-150.12 148.34,-79.18 179.95,-31.75 284.89,61.03 149.07,131.82 307.16,258.72 460.88,385.25 56.06,46.14 419.31,397.36 432.56,401.58 39.98,12.73 -169,-529.56 -190.66,-587.61 -37,-99.17 -74.29,-202.01 -115.83,-299.17 -68.63,-160.48 -35.63,-160.53 -206.49,-216.47 -187.54,-61.42 -446.98,-216.43 -639.7,-190.27z"/>
  </g>
 </g>
</svg>
