<?xml version="1.0" encoding="UTF-8"?>
<!DOCTYPE svg PUBLIC "-//W3C//DTD SVG 1.1//EN" "http://www.w3.org/Graphics/SVG/1.1/DTD/svg11.dtd">
<!-- Creator: CorelDRAW 2018 -->
<svg xmlns="http://www.w3.org/2000/svg" xml:space="preserve" width="43.3492mm" height="43.3492mm" version="1.1" style="shape-rendering:geometricPrecision; text-rendering:geometricPrecision; image-rendering:optimizeQuality; fill-rule:evenodd; clip-rule:evenodd"
viewBox="0 0 4334.92 4334.92"
 xmlns:xlink="http://www.w3.org/1999/xlink">
 <defs>
  <style type="text/css">
   <![CDATA[
    .fil0 {fill:black}
   ]]>
  </style>
 </defs>
 <g id="Layer_x0020_1">
  <metadata id="CorelCorpID_0Corel-Layer"/>
  <path class="fil0" d="M1659.46 1916.43c-49.81,0 -94.54,-16.69 -127,-33.87 -20.84,-250.48 421.12,-694.26 677.33,-694.26 157.6,0 365.63,110.56 489.83,162.1 124.87,51.83 358.33,124.05 469.61,182.33 53.49,28.02 333.82,824.31 361.36,942.5l-159.84 103.16c-40.83,-30.72 -122.19,-141.72 -177.08,-189.57 -217.78,-189.88 -400.2,-331.07 -609.09,-508.51 -69.06,-58.67 -129.02,-107.14 -194.87,-169.19 -95.16,-89.66 -102.23,-112.62 -242.25,-51.76 -100.21,43.56 -199.16,42.35 -254.75,117.79 -50.58,68.63 -119.3,139.28 -233.25,139.28zm-313.26 -101.6l0 67.73c0,202.81 351.24,310.85 582.52,125.33 44.77,-35.93 52.26,-44.06 89.4,-88.4 30.31,-36.2 76.26,-34.44 124.13,-53.69 140.06,-56.35 103.91,-25.43 213.09,65.95 187.35,156.82 912.78,712.02 912.78,856.74 0,57.01 -18.63,97.69 -78.13,118 -53.78,18.36 -81.87,-13.81 -114.45,-43.94 -106.83,-98.8 -478.05,-514.32 -535.55,-514.32 -57.12,0 -101.6,12.94 -101.6,101.6 0,88.32 512.02,504.11 533.4,584.2 -23.04,34.41 -80.24,76.2 -135.47,76.2 -148.78,0 -455.86,-491.07 -584.19,-491.07 -60.23,0 -84.67,44.42 -84.67,101.6 0,91.4 376.27,387.04 440.27,482.6 -31.12,35.79 -70.81,93.13 -135.47,93.13 -126.04,0 -470.07,-499.53 -575.73,-499.53 -48.72,0 -93.14,42.97 -93.14,84.67 0,116.57 329.36,354.78 397.94,457.2 -237.05,0 -604.72,-334.1 -760.16,-459.04 -176.51,-141.89 -518.29,-413.79 -636.84,-590.83l237.07 -931.33 550.33 0c-85.92,128.31 -245.53,248.74 -245.53,457.2zm1947.32 -499.53c271.64,-63.28 510,-135.47 855.13,-135.47l0 1439.33 -355.59 0c-32.32,0 -111.69,-279.79 -125.92,-322.82 -79.98,-242.01 -275.37,-795.36 -373.62,-981.04zm-2726.26 1117.6l-380.99 0 0 -1430.87c13.49,6.48 319.84,38.63 368.84,46.02 137.52,20.76 228.55,54.47 342.35,80.98 -53.95,231.59 -89.8,444.21 -145.57,667.23 -53.02,212.03 -136.46,429.88 -184.63,636.64zm-567.26 -1540.93l0 1642.53c0,68.64 56.76,93.13 127,93.13l465.66 0c105.07,0 124.15,-42.05 143.94,-127 89.03,59.62 209.25,220.13 304.63,296.5 246.11,197.07 841.04,727.96 1100.83,727.96 69.75,0 129.5,1.97 189.02,-31.8 75.74,-42.98 20.59,-10.53 158.11,-10.53 131.45,0 232.87,-106.79 279.4,-194.73 92.32,44.29 252.28,-27.37 328.16,-112.11 41.66,-46.51 20.51,-64.6 84.35,-76.52 183.55,-34.29 273.29,-129.53 273.29,-353.24l134.49 -86.16c88.9,183.87 -47.94,145.43 644.44,145.43 54.65,0 101.6,-31.7 101.6,-84.67l0 -1642.53c0,-109.65 -124.65,-84.66 -220.13,-84.66 -273.19,0 -619.79,57.37 -867.8,139.73 -103.56,34.39 -173.6,36.44 -173.6,165.07 -149.02,-78.86 -681.64,-296.34 -880.53,-296.34 -228.58,0 -309.45,172 -473.74,169.73 -213.96,-2.94 -429.7,-0.39 -643.86,-0.39 3.42,-41.04 8.47,-22.31 8.47,-93.14 0,-136.51 -367.99,-195.27 -501.87,-217.79 -119.46,-20.11 -581.86,-119.4 -581.86,31.53z"/>
 </g>
</svg>
