<?xml version="1.0" encoding="UTF-8"?>
<!DOCTYPE svg PUBLIC "-//W3C//DTD SVG 1.1//EN" "http://www.w3.org/Graphics/SVG/1.1/DTD/svg11.dtd">
<!-- Creator: CorelDRAW 2018 -->
<svg xmlns="http://www.w3.org/2000/svg" xml:space="preserve" width="43.3492mm" height="43.3492mm" version="1.1" style="shape-rendering:geometricPrecision; text-rendering:geometricPrecision; image-rendering:optimizeQuality; fill-rule:evenodd; clip-rule:evenodd"
viewBox="0 0 4334.92 4334.92"
 xmlns:xlink="http://www.w3.org/1999/xlink">
 <defs>
  <style type="text/css">
   <![CDATA[
    .fil0 {fill:black}
   ]]>
  </style>
 </defs>
 <g id="Layer_x0020_1">
  <metadata id="CorelCorpID_0Corel-Layer"/>
  <path class="fil0" d="M3334.16 3960.27l-506.73 0c0,-179.04 18.17,-846.43 -24.96,-980.46 -18.56,-57.69 -49.29,-119.48 -89.5,-159.83 -45.23,-45.43 -75.49,-76.33 -134.63,-106.67 -140.72,-72.2 -399.96,-48 -587.41,-48 -72.21,0 -139.17,18.68 -190.56,42.69 -167.26,78.1 -259.87,241.61 -259.87,455.99l0 796.28 -506.73 0c-260.33,0 -225.21,-239.97 -225.21,-394.12l0 -924.97c0,-347.95 39.36,-363.78 -265.63,-361.76 -57,0.38 -88.87,-5.97 -122.09,-30.74 -25.24,-18.83 -54.66,-65.2 -54.66,-106.2 0,-76.23 130.54,-182.82 199.07,-251.35l1471.92 -1471.92c159.06,-159.06 184.14,-109.45 357.93,64.35l1532.25 1532.24c34.38,34.25 68.38,61.83 72.43,120.2 3.58,51.55 -30.73,101.56 -67.43,122.09 -153.08,85.63 -374.2,-100.08 -373,198.06 0.71,178.78 8.28,1280.81 -4.26,1338.98 -21.58,100.1 -101.9,165.14 -220.93,165.14zm-1222.58 -3868.82l69.91 0c178.46,0.72 181.42,14.06 370.46,203.09l1483.98 1483.99c191.83,191.82 198.89,179.69 199.07,424.49l0 11.85c0,107.89 -125.08,248.65 -250.16,288.75 -160.8,51.54 -186.71,-37.32 -184.65,80.77l0.48 973.71c0,104.14 11.01,243.21 -19,334.92 -56.38,172.33 -217.36,308.55 -399.25,308.55l-683.69 0c-58.08,0 -102.4,-37.51 -116.09,-84.99 -14.5,-50.28 -4.4,-869.66 -4.27,-985.05 0.08,-68.38 -16.66,-114.66 -50.25,-150.83 -28.32,-30.52 -71.08,-66.06 -126.98,-66.06l-434.34 0c-97.76,0 -177.86,93.85 -177.15,225.03l0.19 788.43c0,86.16 33.13,273.47 -120.65,273.47l-683.68 0c-181.89,0 -356.79,-147.41 -403.99,-319.89 -30.28,-110.62 -14.26,-852.3 -14.26,-1071.6 0,-298.53 29.38,-291.92 -72.3,-289.65 -114.46,2.57 -198.39,-49.03 -255.56,-106.39 -101.76,-102.15 -114.52,-167.79 -114.52,-303.72 0,-146.26 114.79,-239.47 191.03,-315.71l1500.07 -1500.07c65.21,-65.21 178.17,-203.09 295.6,-203.09z"/>
 </g>
</svg>
