<?xml version="1.0" encoding="UTF-8"?>
<!DOCTYPE svg PUBLIC "-//W3C//DTD SVG 1.1//EN" "http://www.w3.org/Graphics/SVG/1.1/DTD/svg11.dtd">
<!-- Creator: CorelDRAW 2018 -->
<svg xmlns="http://www.w3.org/2000/svg" xml:space="preserve" width="43.3492mm" height="43.3492mm" version="1.1" style="shape-rendering:geometricPrecision; text-rendering:geometricPrecision; image-rendering:optimizeQuality; fill-rule:evenodd; clip-rule:evenodd"
viewBox="0 0 4334.92 4334.92"
 xmlns:xlink="http://www.w3.org/1999/xlink">
 <defs>
  <style type="text/css">
   <![CDATA[
    .fil0 {fill:black}
   ]]>
  </style>
 </defs>
 <g id="Layer_x0020_1">
  <metadata id="CorelCorpID_0Corel-Layer"/>
  <g id="_945525776">
   <path class="fil0" d="M349.67 3631.35l0 -353.91c0,-25.03 806.62,-715.85 844.55,-715.85 52.12,0 377.29,285.23 459.44,352.92 71.64,59.05 94,105.54 192.06,105.54 63.98,0 283.39,-247.21 335.8,-299.62l800.34 -800.29c192.77,-192.77 153.17,-224.21 396.59,81.96 69.73,87.71 136.77,166.72 205.57,252.9 51.34,64.31 401.23,472.04 401.23,515.71l0 860.64c0,244 -109.9,353.9 -353.9,353.9l-2927.78 0c-244,0 -353.9,-109.9 -353.9,-353.9zm1471.92 -900.86c-283.72,-189.98 -507.89,-548.01 -786.86,-368.6 -127.77,82.16 -611.39,530.71 -685.06,569.69l-0.02 -2195.85c-0.67,-265.79 89,-386.06 353.92,-386.06l2927.78 0c447.02,0 353.9,384.67 353.9,820.42 0,394.12 0,788.25 0,1182.36 -32.31,-21.63 -314.36,-380.67 -362.88,-441.44 -83.21,-104.23 -266.93,-378.97 -425.36,-378.97 -226.88,0 -274.51,93.5 -436.37,255.36 -106.9,106.91 -202.69,210.78 -309.64,317.74 -86.72,86.72 -581.53,593.3 -629.41,625.35zm-1713.22 -2115.39l0 3104.72c0,266.13 240.6,506.74 506.73,506.74l3104.72 0c266.13,0 506.73,-240.61 506.73,-506.74l0 -3104.72c0,-266.13 -240.6,-506.74 -506.73,-506.74l-3104.72 0c-266.13,0 -506.73,240.61 -506.73,506.74z"/>
   <path class="fil0" d="M1065.52 1202.26c0,-184.1 142.08,-330.24 319.74,-339.52 170.87,-8.92 355.9,129.58 355.9,299.3l0 64.35c0,163.29 -163.79,313.69 -329.77,313.69 -189.23,0 -345.87,-149.56 -345.87,-337.82zm-249.34 -8.04c0,339.9 255.84,567.69 572.79,594.07 311.08,25.88 601.53,-272.08 601.53,-569.94l0 -40.22c0,-294.42 -267.65,-563.03 -563.03,-563.03l-48.26 0c-299.14,0 -563.03,277.22 -563.03,579.12z"/>
  </g>
 </g>
</svg>
