<?xml version="1.0" encoding="UTF-8"?>
<!DOCTYPE svg PUBLIC "-//W3C//DTD SVG 1.1//EN" "http://www.w3.org/Graphics/SVG/1.1/DTD/svg11.dtd">
<!-- Creator: CorelDRAW 2018 -->
<svg xmlns="http://www.w3.org/2000/svg" xml:space="preserve" width="43.3492mm" height="43.3492mm" version="1.1" style="shape-rendering:geometricPrecision; text-rendering:geometricPrecision; image-rendering:optimizeQuality; fill-rule:evenodd; clip-rule:evenodd"
viewBox="0 0 4334.92 4334.92"
 xmlns:xlink="http://www.w3.org/1999/xlink">
 <defs>
  <style type="text/css">
   <![CDATA[
    .fil0 {fill:black}
   ]]>
  </style>
 </defs>
 <g id="Layer_x0020_1">
  <metadata id="CorelCorpID_0Corel-Layer"/>
  <g id="_944959576">
   <path class="fil0" d="M1131.7 4024.41l-409.62 0.25 -89.92 -1138.46 -321.9 -0.09 205.33 -1129.83 303.38 -0.63 0 613.68c0,145.21 218.02,188.55 218.02,-32.3l0 -581.38c405.55,0 244.58,-27.09 707.9,204.56 62.36,31.18 385.55,198.63 422.57,207.25l0 201.87 -830.79 -205.52 -204.97 1860.6zm-1031.38 -1130.22c0,115.34 97.25,201.86 185.72,201.86l153.42 0c0,53.55 61.67,893.18 77.12,972.61 16.41,84.46 93.92,165.94 189.35,165.94l444.11 0c69.98,0 136.74,-55.3 164.45,-102.02 42.25,-71.25 84.55,-616.38 98.49,-725.14 21.31,-166.22 35.17,-321.49 53.61,-487.38l54.89 -494.21c41.39,19.87 570.3,153.42 670.2,153.42 71.51,0 139.05,-63.7 161.8,-112.73 32.53,-70.08 23.92,-150.25 23.92,-250.63 171.32,-39.91 506.86,-143.83 697.98,-198.33l521.37 -148.83c67.45,-18.7 121.07,-36.63 121.07,-113.1 0,-191.35 -271.14,-63.13 -423.43,-19.7l-653.3 186.49c-52.94,15.21 -295.3,91.6 -328.28,91.6 -0.63,0 -44.22,-29.52 -53.92,-34.91l-177.56 -88.9c-130.95,-65.48 -659.68,-344.53 -729.42,-344.53l-839.78 0c-137.91,0 -191.69,99.34 -213.44,222.6 -30.41,172.4 -198.37,1030.76 -198.37,1125.89z"/>
   <path class="fil0" d="M1755.65 1505.33l208.54 99.74 1.4 -261.24 2059.07 0 0 1647.26 -2059.07 0c0,-289.59 23.97,-238.47 -95.24,-268.12 -26.84,-6.69 -91.6,-19.56 -114.7,-30.65 0,214.98 -46.18,393.71 99.98,481.4 57.25,34.35 82.56,27.41 166.48,27.31 261.08,-0.28 522.17,0 783.25,0 -15.11,56.61 -532.92,860.58 -532.92,912.45 0,77.62 23.54,121.12 113.04,121.12 70.71,0 115.07,-109.71 145.82,-161.02 53.03,-88.46 333.43,-566.2 354.81,-581.86 0,139.96 0,279.93 0,419.88 0,184.92 -27.91,323 121.12,323 119.54,0 88.82,-194.22 88.82,-331.06 0,-139.97 0,-279.93 0,-419.9 24.97,18.3 302.9,492.82 358.82,585.94 40.8,67.96 74.88,165.02 157.97,165.02 67.73,0 104.98,-45.41 104.98,-113.04 0,-64.7 -515.55,-845.9 -532.94,-920.53 207.26,0 414.51,0 621.76,0 88.45,0 234.79,12.99 301.37,-13.54 65.67,-26.17 126.59,-97.99 126.59,-188.33l0 -1663.4c0,-111.18 -90.69,-201.87 -201.87,-201.87l-2091.37 0c-72.21,0 -139.03,58.2 -164.59,109.94 -32.4,65.6 -21.12,167.77 -21.12,261.5z"/>
   <path class="fil0" d="M932.02 1133.89c-124.75,0 -206.76,-51.09 -279.33,-108.26 -111.97,-88.22 -132.48,-211.84 -132.48,-343.92 0,-189.08 188.16,-371.45 419.89,-371.45 198.4,0 395.66,185.59 395.66,379.51l0 64.61c0,195.3 -204.9,379.51 -403.74,379.51zm-8.07 209.94c348.6,0 609.22,-268.91 623.55,-610.72 13.56,-323.51 -262.1,-632.79 -591.26,-632.79 -220.39,0 -341.67,56.23 -478.49,191.72 -369.53,365.94 -109.75,1051.79 446.2,1051.79z"/>
  </g>
 </g>
</svg>
