<?xml version="1.0" encoding="UTF-8"?>
<!DOCTYPE svg PUBLIC "-//W3C//DTD SVG 1.1//EN" "http://www.w3.org/Graphics/SVG/1.1/DTD/svg11.dtd">
<!-- Creator: CorelDRAW 2018 -->
<svg xmlns="http://www.w3.org/2000/svg" xml:space="preserve" width="43.3492mm" height="43.3492mm" version="1.1" style="shape-rendering:geometricPrecision; text-rendering:geometricPrecision; image-rendering:optimizeQuality; fill-rule:evenodd; clip-rule:evenodd"
viewBox="0 0 4334.92 4334.92"
 xmlns:xlink="http://www.w3.org/1999/xlink">
 <defs>
  <style type="text/css">
   <![CDATA[
    .fil0 {fill:black}
   ]]>
  </style>
 </defs>
 <g id="Layer_x0020_1">
  <metadata id="CorelCorpID_0Corel-Layer"/>
  <g id="_944303736">
   <path class="fil0" d="M1436.49 1842.58c0,261.54 46.59,439.81 189.02,631.29 73.22,98.44 280.54,318.97 412,318.97 153.02,0 243.85,-211.81 65.48,-317.25 -261.23,-154.43 -402.16,-473.83 -312.15,-774.09 74.35,-248.04 203.46,-372.05 374.59,-543.18l462.78 -463.11c264.57,-254.65 648.38,-387.29 981.81,-165.24 260.09,173.19 372.01,487.38 270.16,791.82 -21.04,62.87 -39.93,100.02 -69.26,158.14 -49.38,97.81 -100.84,137.65 -145.6,195.53 -40.14,51.88 -324.41,329.73 -403.44,408.75 -87.54,87.54 -95.43,86.31 -95.43,188.84 0,59.53 78.54,138.07 138.07,138.07 112.49,0 109.5,-16.11 205.08,-111.68 207.02,-207.02 426.85,-395.71 576.31,-633.85 100.55,-160.19 156.57,-353.69 160.75,-546.8l0 -47.15c-3.17,-141.75 -34.67,-281.78 -97.42,-406.77 -82.02,-163.32 -185.8,-281.82 -327.15,-387.57 -135.39,-101.3 -346.64,-189.04 -533.81,-189.04 -176.23,0 -296.25,10.45 -457.31,78.74 -309.63,131.28 -494.87,357.69 -726.46,589.28 -231.59,231.59 -458,416.83 -589.28,726.46 -36.88,86.98 -78.74,240.76 -78.74,359.84z"/>
   <path class="fil0" d="M2134.97 1696.39c0,171.7 126.73,128.82 283.23,325.92 208.33,262.39 195.17,585.65 14.08,856.68 -14.8,22.16 -23.43,37.37 -39.85,57.61 -78.96,97.35 -146.84,163.89 -235.12,252.19 -66.96,66.95 -127.97,127.96 -194.92,194.92 -65.61,65.61 -125.27,125.26 -190.87,190.87 -69.14,69.12 -127.9,123.12 -207.3,182.54 -134.89,100.92 -368.48,196.7 -598.32,147.95 -104.44,-22.16 -190.04,-59.92 -265.13,-116.6 -260.85,-196.87 -352.46,-498.96 -229.75,-824.03 134.23,-355.59 697.45,-725.16 697.45,-853.84l0 -48.73c0,-59.53 -78.54,-138.07 -138.07,-138.07 -112.49,0 -109.5,16.11 -205.08,111.68 -143.68,143.67 -416.64,396.96 -524.37,555.84 -119.92,176.86 -197.56,377.69 -212.69,582.64l0 145.35c8.91,118.36 40.08,236.53 97.42,350.74 56.62,112.73 115.07,192.16 201.06,278.13 91.61,91.58 155.78,139.61 278.13,201.06 114.71,57.6 235.38,88.96 356.94,97.42l136.79 0c221.09,-15 438.8,-101.72 622.5,-240.17 145.18,-109.41 767.75,-731.98 877.17,-877.16 285.5,-378.83 338.51,-881.94 51.14,-1268.28 -73.22,-98.44 -280.54,-318.97 -412,-318.97 -85.2,0 -162.44,69.3 -162.44,154.31z"/>
  </g>
 </g>
</svg>
