<?xml version="1.0" encoding="UTF-8"?>
<!DOCTYPE svg PUBLIC "-//W3C//DTD SVG 1.1//EN" "http://www.w3.org/Graphics/SVG/1.1/DTD/svg11.dtd">
<!-- Creator: CorelDRAW 2018 -->
<svg xmlns="http://www.w3.org/2000/svg" xml:space="preserve" width="43.3492mm" height="43.3492mm" version="1.1" style="shape-rendering:geometricPrecision; text-rendering:geometricPrecision; image-rendering:optimizeQuality; fill-rule:evenodd; clip-rule:evenodd"
viewBox="0 0 4334.92 4334.92"
 xmlns:xlink="http://www.w3.org/1999/xlink">
 <defs>
  <style type="text/css">
   <![CDATA[
    .fil0 {fill:black}
   ]]>
  </style>
 </defs>
 <g id="Layer_x0020_1">
  <metadata id="CorelCorpID_0Corel-Layer"/>
  <g id="_943323080">
   <path class="fil0" d="M2006.6 261.19c0,230.22 225.85,144.45 510.01,205.83 62.96,13.6 136.68,32.33 190.83,50.48 217.47,72.92 364.39,158.63 537.97,290.5l66.19 54.46c21.26,18.78 34.7,37.71 56.71,55.89 12.63,10.43 20.62,13.83 30.98,25.32l141.31 164.35c35.34,47.4 65.06,86 97.3,135.94 9.78,15.14 11.05,18.84 20.32,35.99 95.95,177.33 139.95,258.6 191.92,467.64 29.03,116.76 54.68,294.87 54.68,419.87 0,46.93 -6.3,59.33 -8.11,96.45 -18.71,384.6 -156.4,727.02 -399.66,1015.97l-76.78 84.09c-146.56,167.89 -340.5,285.6 -539.55,385.44 -152.8,76.62 -419.12,142.8 -608.94,147.12 -41.45,0.95 -54.93,8.29 -104.32,8.29l-217.19 -16.07c-309,-32.84 -594.23,-162.93 -837.67,-344.71 -135.52,-101.19 -248.55,-224.33 -349.29,-358.51 -20.11,-26.78 -31.83,-43.21 -50.11,-70.55 -318.63,-476.51 -264.99,-936.16 -293.99,-1009.02 -64.3,-161.57 -310.85,-114.64 -310.85,53.45 0,300.72 43.76,518.47 149.35,783.69 13.14,33.03 23.56,58.75 38.28,90.41 229.84,494.37 663.21,897.04 1176.62,1075.52 202.38,70.36 406.05,109.31 609.93,117.53l163.91 0c203.69,-8.2 407.33,-46.93 609.8,-115.54 525.03,-177.95 941.66,-577.19 1180.06,-1072.08 120.39,-249.93 182.27,-522.44 190.25,-797.56l0 -122.92c-6.28,-216.74 -45.55,-433.25 -115.54,-639.79 -11.25,-33.2 -20.99,-54.65 -33.81,-86.85 -103.45,-259.88 -263.62,-493.95 -451.89,-682.22 -174.74,-174.73 -361.08,-302.46 -586.38,-410.99l-176.63 -72.72c-64.79,-22.52 -121.89,-40.75 -191.25,-58.09 -181.56,-45.42 -310.52,-59.44 -511.65,-59.44 -82.2,0 -152.81,70.62 -152.81,152.83z"/>
   <path class="fil0" d="M2006.6 1515.95l0 490.65 -490.65 0c-202.89,0 -202.89,321.72 0,321.72l490.65 0 0 490.65c0,202.89 321.72,202.89 321.72,0l0 -490.65 490.65 0c202.89,0 202.89,-321.72 0,-321.72l-490.65 0 0 -490.65c0,-202.89 -321.72,-202.89 -321.72,0z"/>
   <path class="fil0" d="M373.8 1708.99c129.6,0 166.35,-142.57 213.73,-260.83 25.22,-62.92 50.53,-116.1 14.48,-184.54 -68.33,-129.7 -239.34,-105.17 -290.17,-2.66 -8,16.13 -9.3,23.81 -16.22,40.08 -8.35,19.66 -11.44,24.48 -19.57,44.77 -11.14,27.8 -22.69,54.31 -35.63,85.04 -25.89,61.51 -48.39,118.31 -15.81,186.03 24.36,50.67 77.81,92.11 149.19,92.11z"/>
   <path class="fil0" d="M1708.99 381.84c0,-135.6 -106.9,-211.09 -266.68,-146.02 -134.2,54.64 -259.74,80.09 -267.03,213.69 -3.52,64.34 29.3,117.02 78.24,146.5 86.89,52.34 169.44,3.14 268.18,-39.51 30.78,-13.3 55.64,-20.54 85.7,-34.95 46.53,-22.3 101.59,-76.44 101.59,-139.71z"/>
   <path class="fil0" d="M582.92 896.61c0,116.16 73.88,168.91 184.99,168.91 63.98,0 133.31,-89.06 170.93,-126.68 80.59,-80.59 126.68,-98.94 126.68,-203.09 0,-82.71 -69.57,-152.83 -168.91,-152.83 -81.18,0 -142.19,81.86 -187.01,126.68 -44.82,44.82 -126.68,105.83 -126.68,187.01z"/>
  </g>
 </g>
</svg>
