<?xml version="1.0" encoding="UTF-8"?>
<!DOCTYPE svg PUBLIC "-//W3C//DTD SVG 1.1//EN" "http://www.w3.org/Graphics/SVG/1.1/DTD/svg11.dtd">
<!-- Creator: CorelDRAW 2018 -->
<svg xmlns="http://www.w3.org/2000/svg" xml:space="preserve" width="50px" height="50px" version="1.1" style="shape-rendering:geometricPrecision; text-rendering:geometricPrecision; image-rendering:optimizeQuality; fill-rule:evenodd; clip-rule:evenodd"
viewBox="0 0 4334.92 4334.92"
 xmlns:xlink="http://www.w3.org/1999/xlink">
 <defs>
  <style type="text/css">
   <![CDATA[
    .fil0 {fill:black}
   ]]>
  </style>
 </defs>
 <g id="Layer_x0020_1">
  <metadata id="CorelCorpID_0Corel-Layer"/>
  <path class="fil0" d="M1795.12 3519.47l759.26 0c-42.92,160.23 -225.47,265.01 -378.48,267.48 -139.41,2.27 -367.3,-112.68 -380.78,-267.48zm2175.48 -421.07c-3.78,11.86 -4.83,25.23 -2.23,39.82 0,61.94 3.36,125.42 0.9,187.92 -54.49,121.89 -196.38,195 -348.87,194.72 -257.78,-0.49 -515.53,-1.39 -773.36,-1.39 -34.86,54.27 -47.13,150.49 -89.79,215.6 -40.12,61.26 -82.68,119.84 -140.19,165.21 -279.86,220.71 -618.07,222.18 -892.68,-4.66 -180.79,-149.34 -181.47,-306.56 -226.17,-376.15 -260.29,0 -521.57,2.54 -781.68,1.22 -250.95,-1.27 -399.24,-164.93 -338.72,-417.8 21.46,-89.72 263.27,-306.39 344.68,-435.49 405.21,-642.54 -65.28,-1234.91 429.1,-1895.3 257.66,-344.18 613.79,-506.86 1041.64,-502.89 423.59,3.92 776.65,187.68 1022.01,532.22 321.64,451.66 191.81,812.96 230.72,1313.22 48.37,622.02 436.18,777.83 524.64,983.75zm-3337.67 107.19c107.3,-146.55 220.67,-219.9 326.26,-394.81 438.11,-725.67 25.88,-1241.83 362.96,-1800.26 421.89,-698.95 1507.77,-588.99 1785.39,178.55 142.87,394.99 -10.37,854.31 133.86,1308.28 51.89,163.33 142.28,337.1 251.94,469.12 148.8,179.15 382.8,294.21 -20.32,280.43 -466.94,-15.95 -969.3,1.1 -1440.36,1.1 -338.89,0 -743.49,7.02 -1077.04,-0.32 -115.23,-2.53 -234.29,33.07 -322.69,-42.09z"/>
 </g>
</svg>
