<?xml version="1.0" encoding="UTF-8"?>
<!DOCTYPE svg PUBLIC "-//W3C//DTD SVG 1.1//EN" "http://www.w3.org/Graphics/SVG/1.1/DTD/svg11.dtd">
<!-- Creator: CorelDRAW 2018 -->
<svg xmlns="http://www.w3.org/2000/svg" xml:space="preserve" width="43.3492mm" height="43.3492mm" version="1.1" style="shape-rendering:geometricPrecision; text-rendering:geometricPrecision; image-rendering:optimizeQuality; fill-rule:evenodd; clip-rule:evenodd"
viewBox="0 0 4334.92 4334.92"
 xmlns:xlink="http://www.w3.org/1999/xlink">
 <defs>
  <style type="text/css">
   <![CDATA[
    .fil1 {fill:#FE6347}
    .fil0 {fill:white}
   ]]>
  </style>
 </defs>
 <g id="Layer_x0020_1">
  <metadata id="CorelCorpID_0Corel-Layer"/>
  <g id="_928460552">
   <path class="fil0" d="M1816.83 3632.46l740.83 0c-71.73,312.31 -563.7,385.95 -740.83,0zm458.6 541.86l-184.28 0c-160.5,-22.1 -315.25,-103.11 -430.3,-250.42 -45.07,-57.71 -72.72,-87.66 -93.87,-160.13 -20.35,-69.76 -28.39,-121.72 -111.83,-133.7 -229.53,-32.96 -785.49,63.23 -938.84,-51.75 -121.7,-91.25 -148.33,-216.32 -114.7,-362.29 37.87,-164.33 250.14,-200.64 418.3,-580.49 257.31,-581.23 -73.86,-1094.41 303.36,-1677.84 130.5,-201.86 311.14,-360.02 529.41,-461.15 468.49,-217.08 431.56,70.86 394.33,129.2 -73.45,115.1 -440.01,58 -711.8,526.97 -290.64,501.51 19.02,1077.8 -298.29,1682.9 -61.84,117.94 -122.49,193.64 -202.38,297.16 -48.63,63 -288.82,230.15 -76.63,229.31 330.3,-1.3 660.81,-0.57 991.18,-0.57 233.13,0 1882.2,32.86 1959.21,-22 15,-58.42 -112.89,-148.57 -155.23,-198.7 -186.84,-221.19 -302.47,-435.86 -353.72,-730.03 -22.64,-129.94 -17.85,-215.64 -19.64,-344.9 -1.36,-98.44 26.38,-195.03 148.83,-183.79 109.89,10.09 150.67,99.21 138.66,199.1 -14.09,117.21 -9.71,210.11 15.77,325.37 128.99,583.44 532.47,619.15 518.81,929.2 -4.11,93.41 -51.55,182.71 -127.51,237.46 -105.49,76.05 -173.75,58.85 -296.41,59.19 -239.84,0.66 -479.79,0.04 -719.64,0.03 -69.57,313.58 -316.19,505.61 -582.79,541.87z"/>
   <path class="fil1" d="M3163.29 335.01c-343.96,54.61 -592.75,368.45 -535.7,717.92 52.53,321.83 377.02,594.29 711.44,527.35 869.92,-174.12 581.51,-1365.48 -175.74,-1245.27z"/>
   <path class="fil0" d="M3163.29 335.01c757.25,-120.21 1045.66,1071.15 175.74,1245.27 -334.42,66.94 -658.91,-205.52 -711.44,-527.35 -57.05,-349.47 191.74,-663.31 535.7,-717.92zm-75.3 -160.41c-414.79,67.44 -715.59,527.17 -627.43,934.52 95.21,439.88 515.82,704.34 933.29,629.03 1013.73,-182.87 782.86,-1740.56 -305.86,-1563.55z"/>
  </g>
 </g>
</svg>
