<?xml version="1.0" encoding="UTF-8"?>
<!DOCTYPE svg PUBLIC "-//W3C//DTD SVG 1.1//EN" "http://www.w3.org/Graphics/SVG/1.1/DTD/svg11.dtd">
<!-- Creator: CorelDRAW 2018 -->
<svg xmlns="http://www.w3.org/2000/svg" xml:space="preserve" width="43.3492mm" height="43.3492mm" version="1.1" style="shape-rendering:geometricPrecision; text-rendering:geometricPrecision; image-rendering:optimizeQuality; fill-rule:evenodd; clip-rule:evenodd"
viewBox="0 0 4334.92 4334.92"
 xmlns:xlink="http://www.w3.org/1999/xlink">
 <defs>
  <style type="text/css">
   <![CDATA[
    .fil0 {fill:black}
    .fil1 {fill:#FD6347}
   ]]>
  </style>
 </defs>
 <g id="Layer_x0020_1">
  <metadata id="CorelCorpID_0Corel-Layer"/>
  <g id="_924031704">
   <path class="fil0" d="M1771.81 3635.29l743.72 0c-8.82,150.12 -231.94,268.91 -369.74,268.91 -150.99,0 -342.02,-111.23 -373.98,-268.91zm447.3 543.98l-128.4 0c-133.62,-13.04 -268.65,-67.07 -389.88,-167.02 -182.17,-150.17 -181.41,-310.53 -226.52,-376.97 -254.12,0 -606.23,20.51 -848.36,-1.6 -258.4,-23.61 -373.72,-322.86 -229.78,-508.08 55.69,-71.65 145.7,-133.39 209.9,-214.06 602.74,-757.37 -103.16,-1551.63 717.54,-2240.37 121,-101.53 417.09,-278.09 574.99,-265.55 134.18,10.66 160.21,178.11 61.52,247.68 -53.85,37.95 -206.48,65.92 -297.5,118.9 -804.96,468.52 -332.68,1201.72 -614.56,1926.85 -62.68,161.24 -203.03,391.43 -335.76,502.96 -121.48,102.05 -139.39,166.15 51.26,165.72l2113.21 -4.44c180.74,0 669,28.68 807.47,-33.99 -13.1,-39.59 -261,-292.37 -323.67,-398.81 -97.87,-166.25 -164.3,-324.16 -198.37,-515.61 -23.84,-133.86 -100.84,-574.65 144.38,-528.2 179.55,34.01 96.25,357.92 141.14,540.18 39.61,160.81 134.24,354.19 240.98,481.49 112.54,134.23 292.33,236.88 274.97,435.94 -22.54,258.53 -225.24,290.3 -432.49,290.93 -237.92,0.74 -475.97,0.06 -713.91,0.06 -82.62,321.59 -326.89,517.25 -598.16,543.99z"/>
   <path class="fil1" d="M2583.35 1017.37c37.85,327.27 351.85,608.87 690.52,560.34 324.94,-46.55 616.73,-346.85 562.31,-693.11 -136.5,-868.54 -1343.15,-648.15 -1252.83,132.77z"/>
   <path class="fil0" d="M2583.35 1017.37c-90.32,-780.92 1116.33,-1001.31 1252.83,-132.77 54.42,346.26 -237.37,646.56 -562.31,693.11 -338.67,48.53 -652.67,-233.07 -690.52,-560.34zm-173.13 -15.84c3.9,-23.02 3.88,-44.64 3.88,-67.96 3.7,-15.95 2.82,-30.81 -1.4,-44.02 0.92,-10.17 1.36,-20.98 0.73,-31.77 40.67,-338.94 311.32,-637.77 658.83,-690.38 1064.43,-161.16 1295.1,1388.56 266.8,1567.38 -441.38,76.75 -835.03,-219.43 -918.08,-652.69 -5.15,-26.85 -8.7,-53.74 -10.76,-80.56z"/>
  </g>
 </g>
</svg>
