<?xml version="1.0" encoding="UTF-8"?>
<!DOCTYPE svg PUBLIC "-//W3C//DTD SVG 1.1//EN" "http://www.w3.org/Graphics/SVG/1.1/DTD/svg11.dtd">
<!-- Creator: CorelDRAW 2018 -->
<svg xmlns="http://www.w3.org/2000/svg" xml:space="preserve" width="43.3492mm" height="43.3492mm" version="1.1" style="shape-rendering:geometricPrecision; text-rendering:geometricPrecision; image-rendering:optimizeQuality; fill-rule:evenodd; clip-rule:evenodd"
viewBox="0 0 4334.92 4334.92"
 xmlns:xlink="http://www.w3.org/1999/xlink">
 <defs>
  <style type="text/css">
   <![CDATA[
    .fil0 {fill:black}
   ]]>
  </style>
 </defs>
 <g id="Layer_x0020_1">
  <metadata id="CorelCorpID_0Corel-Layer"/>
  <path class="fil0" d="M373.8 1821.59c-3.54,-799.75 666.2,-1441.87 1456.05,-1448.74 799.85,-6.94 1469.5,626.86 1472.69,1432.63 3.2,807.65 -654.67,1445.97 -1456.88,1448.67 -787.62,2.66 -1468.32,-634.63 -1471.86,-1432.56zm1391.16 -1713.22l185.48 0c397.77,21.03 787.76,178.21 1096.64,479.71 318.95,311.32 505.96,697.7 527.1,1146.34 23.58,500.3 -142.61,840.75 -441.52,1221.28 145.7,185.4 673.42,656.18 898.96,886.66 60.08,61.39 177.26,148.08 194.93,237.78l0 43.97c-4.86,23.07 -17.86,46.11 -41.77,68.73 -21.07,19.93 -43.04,30.43 -65.42,33.71l-32.25 0c-97.41,-13.26 -197.77,-140.15 -260.72,-203.1l-599.22 -591.18c-85.09,-85.09 -205.89,-221.06 -295.6,-291.57 -736.19,559.32 -1771.55,504.13 -2391.3,-198.64 -278.15,-315.41 -423.4,-711.1 -431.9,-1106.8l0 -74.1c9.53,-438.01 187.24,-869.86 538.85,-1186.33 318.97,-287.08 716.53,-445.23 1117.74,-466.46z"/>
 </g>
</svg>
