<?xml version="1.0" encoding="UTF-8"?>
<!DOCTYPE svg PUBLIC "-//W3C//DTD SVG 1.1//EN" "http://www.w3.org/Graphics/SVG/1.1/DTD/svg11.dtd">
<!-- Creator: CorelDRAW 2018 -->
<svg xmlns="http://www.w3.org/2000/svg" xml:space="preserve" width="43.3492mm" height="43.3492mm" version="1.1" style="shape-rendering:geometricPrecision; text-rendering:geometricPrecision; image-rendering:optimizeQuality; fill-rule:evenodd; clip-rule:evenodd"
viewBox="0 0 4334.92 4334.92"
 xmlns:xlink="http://www.w3.org/1999/xlink">
 <defs>
  <style type="text/css">
   <![CDATA[
    .fil0 {fill:black}
   ]]>
  </style>
 </defs>
 <g id="Layer_x0020_1">
  <metadata id="CorelCorpID_0Corel-Layer"/>
  <g id="_597663272">
   <path class="fil0" d="M349.68 2399.21c-9.61,-290.19 -28.38,-1188.95 170.43,-1389.96 183.47,-185.51 1129.05,-150.01 1414.11,-153.86 510.51,-6.91 1007.8,6.76 1517.75,34.09 604.35,32.4 513.17,562.76 529.46,1039.23 10.19,297.94 37.06,1177.78 -162.06,1390.47 -135.94,145.2 -453.84,128.21 -643.97,136.24 -676.31,28.54 -1651.67,39.45 -2296.45,-17.03 -240.17,-21.04 -396.29,-59.04 -466.37,-313.84 -53.4,-194.19 -56.03,-517.5 -62.9,-725.34zm3876.86 -571.4l0 771.04c-15.71,328.03 -58.9,648.16 -162.11,804.53 -151.55,229.6 -366.03,272.66 -623.9,284.99 -794.65,38.01 -1859.14,70.9 -2625.88,-8.73 -671.6,-69.75 -685.06,-543.62 -704.14,-1105.61l-2.13 -64.15 0 -771.64c15.59,-329.29 58.76,-651.34 162.81,-809 149.09,-225.93 367.95,-274.84 621.86,-287.04 294.51,-14.14 577.9,-21.78 872.25,-28.6 585.42,-13.54 1175.17,-11.21 1759.76,33.89 660.52,50.99 679.91,577.92 699.05,1110.7 0.77,21.47 1.6,44.8 2.43,69.62z"/>
   <path class="fil0" d="M1886.7 2489.09l-0.75 -733.34 668.72 367.92 -667.97 365.42zm-89.24 -1022.9c-216.78,25.2 -152.81,318.59 -152.81,490.65 0,214.34 -2.62,430.18 -0.8,644.26 2.26,266.39 230.57,175.6 372.84,97.76 114.13,-62.44 784.33,-410.26 829.19,-457.63 160.48,-169.5 -85.85,-285.67 -202.93,-349.69 -135.6,-74.14 -740.2,-437.59 -845.49,-425.35z"/>
  </g>
 </g>
</svg>
